<?xml version="1.0" standalone="no"?>
<!DOCTYPE svg PUBLIC "-//W3C//DTD SVG 20010904//EN"
 "http://www.w3.org/TR/2001/REC-SVG-20010904/DTD/svg10.dtd">
<svg version="1.0" xmlns="http://www.w3.org/2000/svg"
 width="640.000000pt" height="640.000000pt" viewBox="0 0 640.000000 640.000000"
 preserveAspectRatio="xMidYMid meet">

<g transform="translate(0.000000,640.000000) scale(0.100000,-0.100000)"
fill="#000000" stroke="none">
<path d="M3145 5420 c-329 -23 -623 -103 -903 -247 -503 -257 -909 -715 -1105
-1243 -144 -388 -181 -834 -102 -1238 l24 -124 -28 -24 c-16 -13 -31 -36 -34
-50 -4 -22 92 -416 158 -650 38 -132 295 -328 518 -395 53 -16 86 -35 150 -86
282 -229 632 -392 1007 -472 337 -71 588 -77 890 -20 879 166 1592 842 1804
1710 47 193 61 317 60 539 0 314 -39 538 -143 819 l-31 84 34 51 c112 170 160
368 136 569 -14 126 -40 209 -97 317 -104 200 -278 345 -503 421 -80 26 -115
32 -220 37 -195 8 -351 -33 -509 -131 l-63 -40 -122 41 c-313 107 -631 152
-921 132z m296 -210 c137 -13 227 -28 324 -51 72 -18 230 -66 247 -75 3 -2
-10 -30 -31 -62 -48 -73 -86 -160 -113 -259 -17 -63 -21 -106 -21 -218 0 -123
3 -151 27 -230 15 -49 46 -126 70 -169 50 -93 677 -905 718 -930 38 -23 90
-20 119 7 13 12 125 151 248 310 123 158 226 287 230 287 10 0 46 -118 71
-230 103 -467 48 -954 -155 -1365 -275 -556 -766 -962 -1349 -1115 -197 -51
-294 -64 -496 -64 -245 1 -439 32 -696 114 -165 53 -368 145 -474 216 l-35 24
710 0 c764 0 769 1 851 53 58 36 121 113 145 177 17 44 20 71 17 137 -6 116
-43 189 -141 275 -107 95 -157 133 -207 158 -87 44 -130 50 -401 50 -231 0
-257 2 -271 18 -9 9 -95 134 -193 277 -97 143 -189 272 -203 287 l-27 27 -265
7 c-293 8 -325 4 -360 -46 -11 -15 -20 -42 -20 -59 0 -18 44 -124 110 -262 61
-128 110 -234 110 -236 0 -2 -44 -3 -98 -3 l-97 0 -120 147 c-66 81 -131 153
-145 160 -16 8 -67 13 -136 13 l-111 0 -22 103 c-33 160 -43 259 -44 437 0
205 16 347 58 515 153 606 552 1099 1110 1371 287 139 550 200 916 212 26 1
93 -3 150 -8z m1434 -12 c28 -5 88 -28 134 -50 68 -32 101 -57 172 -127 72
-71 95 -102 128 -171 69 -144 87 -283 55 -438 -27 -135 -62 -191 -363 -577
-154 -198 -284 -358 -288 -356 -14 7 -524 663 -561 721 -20 30 -50 93 -66 140
-28 77 -30 96 -30 210 0 205 50 327 193 470 173 172 375 229 626 178z m-2344
-2863 c120 -176 218 -323 219 -328 0 -4 -93 -6 -207 -5 l-208 3 -152 320 c-84
175 -153 323 -153 327 0 5 64 7 141 6 l141 -3 219 -320z m-981 -116 c67 -82
133 -154 147 -160 13 -5 106 -9 206 -9 l182 0 58 -115 c43 -87 63 -118 83
-125 15 -6 178 -10 391 -10 l365 0 34 34 c46 46 45 84 -1 153 -19 29 -35 55
-35 59 0 3 82 4 183 2 158 -3 188 -6 227 -24 65 -30 224 -166 241 -206 29 -71
6 -150 -54 -187 -34 -21 -39 -21 -865 -21 -889 0 -890 0 -1028 51 -94 35 -191
96 -265 168 l-68 66 -61 233 c-33 128 -60 234 -60 237 0 3 45 5 99 5 l99 0
122 -151z"/>
</g>
</svg>
